HIERARCHY
ROOT Pelvis
{
	OFFSET 0.000000 0.000000 0.000000
	CHANNELS 6 Xposition Yposition Zposition Xrotation Yrotation Zrotation
	JOINT LeftUpLeg_virtual
	{
		OFFSET 0.000000 0.000000 0.000000
		CHANNELS 3 Xrotation Yrotation Zrotation
		JOINT LeftUpLeg
		{
			OFFSET 18.735201 -5.666702 -4.541200
			CHANNELS 3 Xrotation Yrotation Zrotation
			JOINT LeftLeg
			{
				OFFSET -0.021200 -31.938179 0.493100
				CHANNELS 3 Xrotation Yrotation Zrotation
				JOINT LeftFoot
				{
					OFFSET 0.021200 -31.938179 -4.336299
					CHANNELS 3 Xrotation Yrotation Zrotation
					JOINT LeftToeBase
					{
						OFFSET 0.943001 -26.722000 15.023500
						CHANNELS 3 Xrotation Yrotation Zrotation
						End Site
						{
							OFFSET 0 0 0
						}
					}
				}
			}
		}
	}
	JOINT RightUpLeg_virtual
	{
		OFFSET 0.000000 0.000000 0.000000
		CHANNELS 3 Xrotation Yrotation Zrotation
		JOINT RightUpLeg
		{
			OFFSET -18.735201 -5.666702 -4.541200
			CHANNELS 3 Xrotation Yrotation Zrotation
			JOINT RightLeg
			{
				OFFSET 0.018946 -31.938133 0.493100
				CHANNELS 3 Xrotation Yrotation Zrotation
				JOINT RightFoot
				{
					OFFSET -0.018946 -31.938126 -4.336299
					CHANNELS 3 Xrotation Yrotation Zrotation
					JOINT RightToeBase
					{
						OFFSET -0.943001 -26.722004 15.023500
						CHANNELS 3 Xrotation Yrotation Zrotation
						End Site
						{
							OFFSET 0 0 0
						}
					}
				}
			}
		}
	}
	JOINT Hips_virtual
	{
		OFFSET 0.000000 0.000000 0.000000
		CHANNELS 3 Xrotation Yrotation Zrotation
		JOINT Hips
		{
			OFFSET -0.000000 -0.000000 -0.000000
			CHANNELS 3 Xrotation Yrotation Zrotation
			JOINT Spine
			{
				OFFSET 0.000000 10.199997 -0.299500
				CHANNELS 3 Xrotation Yrotation Zrotation
				JOINT Spine1
				{
					OFFSET 0.000000 11.900002 -1.516600
					CHANNELS 3 Xrotation Yrotation Zrotation
					JOINT Spine2
					{
						OFFSET 0.000000 13.600006 -2.842500
						CHANNELS 3 Xrotation Yrotation Zrotation
						JOINT Neck_virtual
						{
							OFFSET 0.000000 0.000000 0.000000
							CHANNELS 3 Xrotation Yrotation Zrotation
							JOINT Neck
							{
								OFFSET 0.000000 9.624100 -2.890100
								CHANNELS 3 Xrotation Yrotation Zrotation
								JOINT Head
								{
									OFFSET 0.000000 14.068802 -1.351900
									CHANNELS 3 Xrotation Yrotation Zrotation
									End Site
									{
										OFFSET 0 0 0
									}
								}
							}
						}
						JOINT LeftShoulder_virtual
						{
							OFFSET 0.000000 0.000000 0.000000
							CHANNELS 3 Xrotation Yrotation Zrotation
							JOINT LeftShoulder
							{
								OFFSET 15.263000 10.923401 -0.547700
								CHANNELS 3 Xrotation Yrotation Zrotation
								JOINT LeftArm
								{
									OFFSET 25.438599 -2.830597 -13.032500
									CHANNELS 3 Xrotation Yrotation Zrotation
									JOINT LeftForeArm
									{
										OFFSET 29.960503 0.000000 0.000000
										CHANNELS 3 Xrotation Yrotation Zrotation
										JOINT LeftHand
										{
											OFFSET 27.849251 0.000000 0.000000
											CHANNELS 3 Xrotation Yrotation Zrotation
											End Site
											{
												OFFSET 0 0 0
											}
										}
									}
								}
							}
						}
						JOINT RightShoulder_virtual
						{
							OFFSET 0.000000 0.000000 0.000000
							CHANNELS 3 Xrotation Yrotation Zrotation
							JOINT RightShoulder
							{
								OFFSET -15.263000 10.923401 -0.547700
								CHANNELS 3 Xrotation Yrotation Zrotation
								JOINT RightArm
								{
									OFFSET -25.438599 -2.830597 -13.032500
									CHANNELS 3 Xrotation Yrotation Zrotation
									JOINT RightForeArm
									{
										OFFSET -29.960503 0.000000 0.000000
										CHANNELS 3 Xrotation Yrotation Zrotation
										JOINT RightHand
										{
											OFFSET -27.849251 0.000000 0.000000
											CHANNELS 3 Xrotation Yrotation Zrotation
											End Site
											{
												OFFSET 0 0 0
											}
										}
									}
								}
							}
						}
					}
				}
			}
		}
	}
}
MOTION
Frames: 6
Frame Time: 0.03333333
-3.859365 89.316986 18.331549 0.000000 0.000000 0.000000 -9.064306 -18.638669 -6.090504 -31.732270 6.884639 16.284894 38.450854 -3.581221 0.238373 5.685530 -10.821482 -10.365906 0.000000 0.000000 0.000000 -9.611836 -17.857451 -5.724947 -27.019380 -21.560684 -9.924117 34.334234 6.991649 -1.550439 0.081735 5.167363 13.761439 0.000000 0.000000 0.000000 -8.953265 -17.630837 -5.738989 -0.744648 0.129142 0.068665 6.954672 0.701458 6.234961 11.142164 -1.171889 1.139040 0.000000 0.000000 0.000000 8.298972 -0.700431 -0.118227 3.082246 0.758999 2.497319 0.000000 0.000000 0.000000 8.905107 -1.401250 0.875834 -2.258386 2.986050 -4.693502 51.075185 -69.049818 -19.707107 -2.546669 -23.601946 -8.117793 0.000000 0.000000 0.000000 9.383296 -0.613142 0.155194 14.276312 -1.920228 5.013618 -25.416773 39.854905 67.729133 11.217208 14.857982 0.693618 0.000000 0.000000 0.000000 
-3.859654 89.320297 18.344170 0.000000 0.000000 0.000000 -9.059443 -18.625304 -6.092116 -31.738499 6.888691 16.294429 38.443641 -3.586732 0.226743 5.708512 -10.823379 -10.374341 0.000000 0.000000 0.000000 -9.608124 -17.845362 -5.730674 -27.008830 -21.584583 -9.916350 34.323873 6.989618 -1.545612 0.072184 5.143877 13.747576 0.000000 0.000000 0.000000 -8.951739 -17.615393 -5.744061 -0.744596 0.129838 0.068773 6.952317 0.702707 6.234523 11.137721 -1.166758 1.137878 0.000000 0.000000 0.000000 8.298357 -0.696429 -0.122092 3.078183 0.759232 2.498759 0.000000 0.000000 0.000000 8.903823 -1.394341 0.876321 -2.255711 2.993621 -4.692272 50.950865 -69.038794 -19.814995 -2.547243 -23.594052 -8.111783 0.000000 0.000000 0.000000 9.366313 -0.609667 0.153025 14.285907 -1.912849 5.017834 -25.420905 39.849963 67.717419 11.220345 14.874982 0.698430 0.000000 0.000000 0.000000 
-3.863686 89.325920 18.360079 0.000000 0.000000 0.000000 -9.047367 -18.589938 -6.096104 -31.747833 6.897087 16.311392 38.424302 -3.598512 0.211091 5.742801 -10.819290 -10.366222 0.000000 0.000000 0.000000 -9.599198 -17.811117 -5.738170 -26.983670 -21.643423 -9.922935 34.298488 6.994094 -1.530586 0.050022 5.116721 13.759191 0.000000 0.000000 0.000000 -8.945474 -17.582529 -5.753973 -0.744416 0.130496 0.068944 6.948106 0.701883 6.228553 11.131791 -1.158282 1.134459 0.000000 0.000000 0.000000 8.290983 -0.687900 -0.128561 3.076212 0.760310 2.501558 0.000000 0.000000 0.000000 8.902107 -1.383702 0.876105 -2.251140 2.993462 -4.673866 50.646700 -69.019751 -20.099541 -2.543223 -23.582324 -8.099522 0.000000 0.000000 0.000000 9.347357 -0.600749 0.149196 14.295937 -1.908752 5.020702 -25.405082 39.833766 67.700159 11.229466 14.898150 0.706283 0.000000 0.000000 0.000000 
-3.871214 89.332741 18.375660 0.000000 0.000000 0.000000 -9.031142 -18.538949 -6.100266 -31.761684 6.906036 16.331522 38.400966 -3.615694 0.194565 5.778032 -10.810616 -10.342620 0.000000 0.000000 0.000000 -9.586283 -17.759031 -5.744258 -26.949743 -21.721718 -9.945129 34.264279 7.004130 -1.508397 0.023078 5.085945 13.788211 0.000000 0.000000 0.000000 -8.934216 -17.537749 -5.765029 -0.744354 0.131082 0.068956 6.943651 0.698181 6.216642 11.127478 -1.148002 1.129877 0.000000 0.000000 0.000000 8.280338 -0.676816 -0.135080 3.076407 0.762504 2.505678 0.000000 0.000000 0.000000 8.901163 -1.371406 0.876015 -2.245670 2.988586 -4.637657 50.181816 -68.995135 -20.546223 -2.532786 -23.559214 -8.082213 0.000000 0.000000 0.000000 9.329991 -0.588881 0.144942 14.304915 -1.906245 5.022688 -25.371306 39.809727 67.676704 11.241955 14.926690 0.717677 0.000000 0.000000 0.000000 
-3.880706 89.338417 18.390882 0.000000 0.000000 0.000000 -9.014715 -18.480487 -6.103110 -31.777916 6.910385 16.347243 38.380657 -3.637380 0.179324 5.807651 -10.800436 -10.307047 0.000000 0.000000 0.000000 -9.571730 -17.700604 -5.746832 -26.909967 -21.806093 -9.977825 34.225255 7.014458 -1.482107 -0.012366 5.048600 13.821783 0.000000 0.000000 0.000000 -8.919759 -17.487508 -5.773924 -0.744221 0.131339 0.068979 6.941366 0.690879 6.200832 11.127643 -1.137901 1.126100 0.000000 0.000000 0.000000 8.272343 -0.666092 -0.139843 3.078411 0.766276 2.511097 0.000000 0.000000 0.000000 8.904261 -1.359775 0.877448 -2.239981 2.982814 -4.584172 49.570979 -68.970492 -21.142828 -2.517349 -23.521020 -8.060634 0.000000 0.000000 0.000000 9.318401 -0.576063 0.142189 14.311165 -1.901395 5.022510 -25.330095 39.782509 67.649028 11.256021 14.955613 0.733700 0.000000 0.000000 0.000000 
-3.889742 89.342171 18.403358 0.000000 0.000000 0.000000 -8.999021 -18.421891 -6.103901 -31.791536 6.905610 16.351697 38.364872 -3.661113 0.166555 5.828970 -10.791606 -10.264512 0.000000 0.000000 0.000000 -9.555733 -17.642795 -5.745294 -26.868629 -21.891065 -10.014785 34.185664 7.020715 -1.454797 -0.059924 5.004396 13.853738 0.000000 0.000000 0.000000 -8.904052 -17.436447 -5.778148 -0.743843 0.131218 0.069405 6.941499 0.679908 6.184244 11.134973 -1.129919 1.124986 0.000000 0.000000 0.000000 8.272263 -0.658176 -0.141619 3.081775 0.771506 2.517413 0.000000 0.000000 0.000000 8.913334 -1.350807 0.881107 -2.234724 2.979015 -4.515123 48.860981 -68.948861 -21.847649 -2.498008 -23.468842 -8.036087 0.000000 0.000000 0.000000 9.316527 -0.564473 0.141997 14.313436 -1.892092 5.017503 -25.294245 39.758364 67.620321 11.269619 14.978909 0.754589 0.000000 0.000000 0.000000 
